<svg width="24" height="24" viewBox="0 0 24 24" fill="none" xmlns="http://www.w3.org/2000/svg">
<path d="M11.9964 2.16235C15.1994 2.16235 15.5793 2.17435 16.8449 2.23233C20.096 2.38029 21.6145 3.92282 21.7625 7.14985C21.8205 8.41447 21.8314 8.79436 21.8314 11.9974C21.8314 15.2014 21.8195 15.5803 21.7625 16.8449C21.6135 20.069 20.099 21.6145 16.8449 21.7625C15.5793 21.8205 15.2014 21.8324 11.9964 21.8324C8.79336 21.8324 8.41348 21.8205 7.14885 21.7625C3.88983 21.6135 2.37929 20.064 2.23133 16.8439C2.17335 15.5793 2.16135 15.2004 2.16135 11.9964C2.16135 8.79336 2.17435 8.41448 2.23133 7.14885C2.38029 3.92282 3.89483 2.37929 7.14885 2.23133C8.41448 2.17435 8.79336 2.16235 11.9964 2.16235ZM11.9964 0C8.73838 0 8.3305 0.0139958 7.05088 0.0719784C2.69419 0.271918 0.272918 2.68919 0.0729781 7.04988C0.0139958 8.3305 0 8.73838 0 11.9964C0 15.2544 0.0139958 15.6633 0.0719784 16.9429C0.271918 21.2996 2.68919 23.7209 7.04988 23.9208C8.3305 23.9788 8.73838 23.9928 11.9964 23.9928C15.2544 23.9928 15.6633 23.9788 16.9429 23.9208C21.2956 23.7209 23.7229 21.3036 23.9198 16.9429C23.9788 15.6633 23.9928 15.2544 23.9928 11.9964C23.9928 8.73838 23.9788 8.3305 23.9208 7.05088C23.7249 2.69819 21.3046 0.272918 16.9439 0.0729781C15.6633 0.0139958 15.2544 0 11.9964 0ZM11.9964 5.83625C8.59442 5.83625 5.83625 8.59442 5.83625 11.9964C5.83625 15.3984 8.59442 18.1576 11.9964 18.1576C15.3984 18.1576 18.1566 15.3994 18.1566 11.9964C18.1566 8.59442 15.3984 5.83625 11.9964 5.83625ZM11.9964 15.9952C9.78806 15.9952 7.9976 14.2057 7.9976 11.9964C7.9976 9.78806 9.78806 7.9976 11.9964 7.9976C14.2047 7.9976 15.9952 9.78806 15.9952 11.9964C15.9952 14.2057 14.2047 15.9952 11.9964 15.9952ZM18.4005 4.15375C17.6047 4.15375 16.9599 4.79856 16.9599 5.59332C16.9599 6.38808 17.6047 7.03289 18.4005 7.03289C19.1952 7.03289 19.839 6.38808 19.839 5.59332C19.839 4.79856 19.1952 4.15375 18.4005 4.15375Z" fill="#2E2E2E"/>
</svg>
