<svg width="50" height="17" viewBox="0 0 50 17" fill="none" xmlns="http://www.w3.org/2000/svg">
<path d="M49.3038 10.1984C49.3038 10.4479 49.2893 10.6915 49.2603 10.9294C49.2313 11.1672 49.1675 11.379 49.0689 11.5646C48.9761 11.7502 48.8398 11.9011 48.6599 12.0171C48.4859 12.1273 48.248 12.1824 47.9464 12.1824C47.6505 12.1824 47.4156 12.1273 47.2415 12.0171C47.0675 11.9011 46.9341 11.7502 46.8413 11.5646C46.7485 11.379 46.6875 11.1672 46.6585 10.9294C46.6353 10.6915 46.6237 10.4479 46.6237 10.1984V6.80476C46.6237 6.64233 46.615 6.4828 46.5976 6.32617C46.586 6.16954 46.5541 6.03321 46.5019 5.91719C46.4497 5.79536 46.3714 5.69965 46.267 5.63003C46.1683 5.55462 46.032 5.51691 45.858 5.51691C45.6201 5.51691 45.4287 5.59523 45.2837 5.75186C45.1386 5.90849 45.0226 6.12313 44.9356 6.39578C44.8544 6.66843 44.7993 6.9904 44.7703 7.36167C44.7413 7.72714 44.7268 8.12162 44.7268 8.5451V10.1984C44.7268 10.4479 44.7123 10.6915 44.6832 10.9294C44.6542 11.1672 44.5904 11.379 44.4918 11.5646C44.399 11.7502 44.2627 11.9011 44.0828 12.0171C43.9088 12.1273 43.6709 12.1824 43.3693 12.1824C43.0734 12.1824 42.8385 12.1273 42.6645 12.0171C42.4904 11.9011 42.357 11.7502 42.2642 11.5646C42.1714 11.379 42.1104 11.1672 42.0814 10.9294C42.0582 10.6915 42.0466 10.4479 42.0466 10.1984V5.4473C42.0466 5.19785 42.0553 4.9571 42.0727 4.72506C42.0901 4.48721 42.1423 4.27837 42.2294 4.09853C42.3164 3.9129 42.4469 3.76497 42.6209 3.65475C42.8008 3.53872 43.0502 3.48071 43.3693 3.48071C43.6884 3.48071 43.9378 3.53582 44.1176 3.64605C44.2975 3.75047 44.4309 3.87809 44.5179 4.02892C44.6107 4.17975 44.6687 4.33928 44.6919 4.50751C44.7152 4.67575 44.7268 4.82077 44.7268 4.9426C44.7732 4.77437 44.8457 4.60323 44.9443 4.4292C45.0429 4.25516 45.1676 4.09853 45.3185 3.95931C45.4751 3.82008 45.6607 3.70696 45.8754 3.61994C46.09 3.52712 46.3395 3.48071 46.6237 3.48071C46.9428 3.48071 47.2619 3.53292 47.5809 3.63734C47.9 3.74176 48.1871 3.9158 48.4424 4.15945C48.6976 4.40309 48.9036 4.72216 49.0602 5.11663C49.2226 5.51111 49.3038 5.9984 49.3038 6.57852V10.1984Z" fill="#B38E1D"/>
<path d="M40.167 7.22251C40.167 7.31533 40.1612 7.42555 40.1496 7.55318C40.138 7.675 40.0916 7.79392 40.0104 7.90995C39.9349 8.02017 39.8131 8.11589 39.6449 8.1971C39.4767 8.27832 39.2388 8.31893 38.9313 8.31893H35.4681V9.15429C35.4681 9.29352 35.4855 9.43855 35.5203 9.58938C35.5551 9.7402 35.6131 9.87943 35.6943 10.0071C35.7813 10.1347 35.8945 10.2391 36.0337 10.3203C36.1729 10.4015 36.344 10.4421 36.5471 10.4421C36.7791 10.4421 36.9561 10.416 37.0779 10.3638C37.2055 10.3058 37.3041 10.2362 37.3737 10.155C37.4492 10.0738 37.5159 9.98675 37.5739 9.89393C37.6319 9.80112 37.7073 9.7141 37.8001 9.63288C37.8987 9.55167 38.0322 9.48495 38.2004 9.43274C38.3744 9.37473 38.6123 9.34573 38.9139 9.34573C39.059 9.34573 39.1982 9.35733 39.3316 9.38053C39.4709 9.40374 39.5927 9.44725 39.6971 9.51106C39.8015 9.57487 39.8856 9.66479 39.9494 9.78081C40.0133 9.89103 40.0452 10.0361 40.0452 10.2159C40.0452 10.593 39.9262 10.9091 39.6884 11.1644C39.4505 11.4138 39.1518 11.614 38.7921 11.7648C38.4325 11.9156 38.0409 12.023 37.6174 12.0868C37.1997 12.1506 36.8081 12.1825 36.4427 12.1825C35.9612 12.1767 35.5029 12.1158 35.0678 11.9997C34.6327 11.8837 34.2469 11.6981 33.9105 11.4428C33.5798 11.1876 33.3159 10.854 33.1186 10.4421C32.9214 10.0303 32.8228 9.52556 32.8228 8.92805V6.89185C32.8228 6.34074 32.8866 5.87375 33.0142 5.49087C33.1476 5.108 33.3188 4.78894 33.5276 4.53369C33.7364 4.27844 33.9714 4.0812 34.2324 3.94197C34.4935 3.79694 34.7574 3.68962 35.0243 3.62001C35.2911 3.5504 35.5435 3.50689 35.7813 3.48948C36.025 3.47208 36.2338 3.46338 36.4079 3.46338C36.9938 3.46338 37.4927 3.51559 37.9045 3.62001C38.3222 3.72443 38.6703 3.86076 38.9488 4.02899C39.2272 4.19722 39.4476 4.39156 39.6101 4.612C39.7725 4.83245 39.8943 5.06159 39.9756 5.29944C40.0568 5.53148 40.109 5.76933 40.1322 6.01298C40.1554 6.25082 40.167 6.47417 40.167 6.68301V7.22251ZM35.4681 7.01367H37.6435C37.6435 6.74102 37.6348 6.50027 37.6174 6.29143C37.6058 6.07679 37.5623 5.89695 37.4869 5.75193C37.4173 5.6069 37.3041 5.49668 37.1475 5.42126C36.9967 5.34585 36.7791 5.30814 36.4949 5.30814C36.257 5.30814 36.0685 5.34585 35.9293 5.42126C35.7958 5.49668 35.6943 5.59239 35.6247 5.70842C35.5551 5.81864 35.5116 5.93756 35.4942 6.06519C35.4768 6.19281 35.4681 6.30593 35.4681 6.40455V7.01367Z" fill="#B38E1D"/>
<line x1="24.6551" y1="5.33107" x2="25.4231" y2="2.46514" stroke="#B38E1D" stroke-width="1.12385" stroke-linecap="round"/>
<line x1="20.7064" y1="15.8971" x2="23.0835" y2="14.2812" stroke="#B38E1D" stroke-width="1.12385" stroke-linecap="round"/>
<line x1="22.4095" y1="2.94813" x2="23.3243" y2="5.28567" stroke="#B38E1D" stroke-width="1.12385" stroke-linecap="round"/>
<line x1="20.1578" y1="13.5409" x2="22.1165" y2="14.2804" stroke="#B38E1D" stroke-width="1.12385" stroke-linecap="round"/>
<path d="M22.6588 5.42965C22.6588 5.1802 22.6704 4.93945 22.6936 4.70741C22.7226 4.46956 22.7835 4.26072 22.8763 4.08089C22.9691 3.89525 23.1025 3.75022 23.2766 3.6458C23.4564 3.53558 23.6972 3.48047 23.9988 3.48047C24.2889 3.48047 24.5209 3.53558 24.695 3.6458C24.869 3.75022 24.9995 3.89525 25.0865 4.08089C25.1794 4.26072 25.2374 4.46956 25.2606 4.70741C25.2896 4.93945 25.3041 5.1802 25.3041 5.42965V11.9211C25.3041 12.4606 25.2838 12.9595 25.2432 13.4178C25.2026 13.8761 25.0952 14.2706 24.9212 14.6012C24.7472 14.9319 24.4832 15.1901 24.1293 15.3757C23.7755 15.5671 23.2853 15.6628 22.6588 15.6628C22.4035 15.6628 22.1599 15.6367 21.9278 15.5845C21.6958 15.5323 21.4927 15.4511 21.3187 15.3409C21.1447 15.2307 21.0054 15.0914 20.901 14.9232C20.7966 14.755 20.7444 14.5548 20.7444 14.3228C20.7444 14.1081 20.7676 13.9312 20.814 13.792C20.8546 13.6528 20.9242 13.5396 21.0228 13.4526C21.1157 13.3714 21.2346 13.3134 21.3796 13.2786C21.5304 13.2438 21.7132 13.2264 21.9278 13.2264C22.1077 13.2264 22.2469 13.1887 22.3455 13.1132C22.4441 13.0436 22.5166 12.9479 22.563 12.8261C22.6094 12.7043 22.6356 12.565 22.6414 12.4084C22.653 12.2518 22.6588 12.0893 22.6588 11.9211V5.42965Z" fill="#B38E1D"/>
<line x1="30.8373" y1="5.33107" x2="31.6052" y2="2.46514" stroke="#B38E1D" stroke-width="1.12385" stroke-linecap="round"/>
<line x1="26.8886" y1="15.8971" x2="29.2656" y2="14.2812" stroke="#B38E1D" stroke-width="1.12385" stroke-linecap="round"/>
<line x1="28.5916" y1="2.94813" x2="29.5064" y2="5.28567" stroke="#B38E1D" stroke-width="1.12385" stroke-linecap="round"/>
<line x1="26.3399" y1="13.5409" x2="28.2987" y2="14.2804" stroke="#B38E1D" stroke-width="1.12385" stroke-linecap="round"/>
<path d="M28.8409 5.42965C28.8409 5.1802 28.8525 4.93945 28.8757 4.70741C28.9047 4.46956 28.9656 4.26072 29.0584 4.08089C29.1512 3.89525 29.2847 3.75022 29.4587 3.6458C29.6385 3.53558 29.8793 3.48047 30.1809 3.48047C30.471 3.48047 30.7031 3.53558 30.8771 3.6458C31.0511 3.75022 31.1816 3.89525 31.2687 4.08089C31.3615 4.26072 31.4195 4.46956 31.4427 4.70741C31.4717 4.93945 31.4862 5.1802 31.4862 5.42965V11.9211C31.4862 12.4606 31.4659 12.9595 31.4253 13.4178C31.3847 13.8761 31.2774 14.2706 31.1033 14.6012C30.9293 14.9319 30.6653 15.1901 30.3115 15.3757C29.9576 15.5671 29.4674 15.6628 28.8409 15.6628C28.5856 15.6628 28.342 15.6367 28.1099 15.5845C27.8779 15.5323 27.6749 15.4511 27.5008 15.3409C27.3268 15.2307 27.1876 15.0914 27.0831 14.9232C26.9787 14.755 26.9265 14.5548 26.9265 14.3228C26.9265 14.1081 26.9497 13.9312 26.9961 13.792C27.0367 13.6528 27.1063 13.5396 27.205 13.4526C27.2978 13.3714 27.4167 13.3134 27.5617 13.2786C27.7126 13.2438 27.8953 13.2264 28.1099 13.2264C28.2898 13.2264 28.429 13.1887 28.5276 13.1132C28.6262 13.0436 28.6988 12.9479 28.7452 12.8261C28.7916 12.7043 28.8177 12.565 28.8235 12.4084C28.8351 12.2518 28.8409 12.0893 28.8409 11.9211V5.42965Z" fill="#B38E1D"/>
<path d="M13.1919 6.75259C13.1919 6.21888 13.2644 5.76639 13.4094 5.39512C13.5545 5.02385 13.7401 4.71349 13.9663 4.46404C14.1984 4.21459 14.4536 4.02025 14.7321 3.88102C15.0164 3.7418 15.2948 3.63738 15.5675 3.56776C15.8401 3.49815 16.0925 3.45464 16.3245 3.43724C16.5624 3.41983 16.748 3.41113 16.8814 3.41113C17.0148 3.41113 17.1976 3.41983 17.4296 3.43724C17.6617 3.45464 17.9082 3.49815 18.1693 3.56776C18.4361 3.63738 18.703 3.7418 18.9698 3.88102C19.2425 4.02025 19.4861 4.21459 19.7008 4.46404C19.9212 4.71349 20.101 5.02385 20.2403 5.39512C20.3795 5.76639 20.4491 6.21888 20.4491 6.75259V8.91061C20.4491 9.44431 20.3795 9.8968 20.2403 10.2681C20.101 10.6393 19.9212 10.9497 19.7008 11.1992C19.4861 11.4486 19.2425 11.6429 18.9698 11.7822C18.703 11.9214 18.4361 12.0258 18.1693 12.0954C17.9082 12.165 17.6617 12.2086 17.4296 12.226C17.1976 12.2434 17.0148 12.2521 16.8814 12.2521C16.748 12.2521 16.5624 12.2434 16.3245 12.226C16.0925 12.2086 15.8401 12.165 15.5675 12.0954C15.2948 12.0258 15.0164 11.9214 14.7321 11.7822C14.4536 11.6429 14.1984 11.4486 13.9663 11.1992C13.7401 10.9497 13.5545 10.6393 13.4094 10.2681C13.2644 9.8968 13.1919 9.44431 13.1919 8.91061V6.75259ZM15.872 9.51973C15.8778 9.68796 15.9184 9.83589 15.9938 9.96351C16.0577 10.0795 16.1563 10.184 16.2897 10.2768C16.4289 10.3638 16.6262 10.4073 16.8814 10.4073C17.1251 10.4073 17.3107 10.3638 17.4383 10.2768C17.5718 10.184 17.6704 10.0795 17.7342 9.96351C17.8038 9.83589 17.8444 9.68796 17.856 9.51973V6.36971C17.8444 6.19568 17.8038 6.03615 17.7342 5.89112C17.6704 5.77509 17.5718 5.66777 17.4383 5.56915C17.3107 5.46473 17.1251 5.41252 16.8814 5.41252C16.6262 5.41252 16.4289 5.46473 16.2897 5.56915C16.1563 5.66777 16.0577 5.77509 15.9938 5.89112C15.9184 6.03615 15.8778 6.19568 15.872 6.36971V9.51973Z" fill="#B38E1D"/>
<path d="M5.46467 9.36303C5.29643 9.36303 5.15141 9.33112 5.02958 9.26731C4.91356 9.2035 4.81204 9.12228 4.72502 9.02366C4.63801 8.92504 4.56259 8.81482 4.49878 8.693C4.44077 8.57117 4.39146 8.45225 4.35085 8.33623L2.69753 3.5677H2.47128V10.8249C2.47128 11.0105 2.45968 11.1846 2.43648 11.347C2.41327 11.5094 2.36106 11.6545 2.27985 11.7821C2.20443 11.9039 2.08841 12.0025 1.93178 12.078C1.78095 12.1476 1.57211 12.1824 1.30525 12.1824C1.0036 12.1824 0.76575 12.1476 0.591716 12.078C0.417682 12.0025 0.287156 11.9039 0.200139 11.7821C0.113122 11.6545 0.0580114 11.5094 0.0348069 11.347C0.0116023 11.1846 0 11.0105 0 10.8249V1.98399C0 1.73454 0.00580117 1.49089 0.0174034 1.25304C0.0348068 1.0152 0.0841165 0.803456 0.165332 0.61782C0.246548 0.432184 0.374173 0.284255 0.548207 0.174034C0.728042 0.0580112 0.980392 0 1.30525 0H2.48869C2.68592 0 2.85126 0.00870162 2.98468 0.026105C3.12391 0.0377073 3.25154 0.0870168 3.36756 0.174034C3.48358 0.25525 3.5967 0.388676 3.70692 0.574312C3.82295 0.759948 3.94767 1.0239 4.0811 1.36617C4.22032 1.70263 4.37986 2.13482 4.55969 2.66272C4.73953 3.18482 4.95997 3.82875 5.22102 4.5945L5.44726 5.29063H5.6561L5.93456 4.42046C6.17241 3.68952 6.37544 3.0717 6.54368 2.567C6.71191 2.0623 6.85984 1.64752 6.98746 1.32266C7.11509 0.991993 7.22821 0.739644 7.32683 0.56561C7.43125 0.385775 7.53857 0.25525 7.64879 0.174034C7.76482 0.0870168 7.88954 0.0377073 8.02297 0.026105C8.15639 0.00870162 8.31882 0 8.51026 0H9.78071C10.1056 0 10.355 0.0580112 10.5291 0.174034C10.7089 0.284255 10.8394 0.432184 10.9206 0.61782C11.0018 0.803456 11.0483 1.0152 11.0599 1.25304C11.0773 1.49089 11.086 1.73454 11.086 1.98399V10.8249C11.086 11.0105 11.0744 11.1846 11.0512 11.347C11.028 11.5094 10.9728 11.6545 10.8858 11.7821C10.7988 11.9039 10.6683 12.0025 10.4942 12.078C10.3202 12.1476 10.0824 12.1824 9.78071 12.1824C9.51386 12.1824 9.30212 12.1476 9.14548 12.078C8.99466 12.0025 8.87863 11.9039 8.79742 11.7821C8.722 11.6545 8.67269 11.5094 8.64949 11.347C8.62628 11.1846 8.61468 11.0105 8.61468 10.8249V3.5677H8.37103L6.73512 8.33623C6.68871 8.45225 6.6365 8.57117 6.57848 8.693C6.52047 8.81482 6.44796 8.92504 6.36094 9.02366C6.27393 9.12228 6.17241 9.2035 6.05638 9.26731C5.94036 9.33112 5.80113 9.36303 5.6387 9.36303H5.46467Z" fill="#B38E1D"/>
</svg>
