<svg width="18" height="20" viewBox="0 0 18 20" fill="none" xmlns="http://www.w3.org/2000/svg">
<path d="M16.386 4.68859C15.3895 4.46945 14.488 3.94025 13.8109 3.17694C13.1338 2.41362 12.7159 1.45543 12.6171 0.439868V0H9.16817V13.6659C9.16887 14.2723 8.97877 14.8635 8.62478 15.3558C8.27079 15.8482 7.77087 16.2166 7.19583 16.4091C6.62079 16.6015 5.99978 16.6081 5.42078 16.4279C4.84177 16.2478 4.33412 15.8901 3.96974 15.4054C3.64328 14.9763 3.44338 14.4645 3.39264 13.9278C3.3419 13.3911 3.44234 12.8509 3.6826 12.3683C3.92286 11.8857 4.29337 11.4799 4.75221 11.1969C5.21106 10.9139 5.73994 10.7649 6.27904 10.7668C6.57719 10.7651 6.87386 10.8089 7.15878 10.8967V7.39778C6.82721 7.35672 6.49308 7.34001 6.15908 7.3478C4.92876 7.38067 3.73472 7.7716 2.72319 8.47273C1.71166 9.17385 0.926538 10.1547 0.463963 11.2953C0.00138831 12.4358 -0.11856 13.6864 0.118807 14.8941C0.356175 16.1017 0.940554 17.214 1.80039 18.0946C2.68161 18.9905 3.80928 19.6043 5.04011 19.8578C6.27094 20.1114 7.54937 19.9934 8.71297 19.5187C9.87656 19.0441 10.8728 18.2342 11.5751 17.1921C12.2774 16.15 12.654 14.9226 12.6571 13.6659V6.668C14.0482 7.66165 15.7162 8.19319 17.4257 8.18754V4.78856C17.0899 4.78995 16.7549 4.75644 16.426 4.68859H16.386Z" fill="#2E2E2E"/>
</svg>
