<svg width="16" height="16" viewBox="0 0 16 16" fill="none" xmlns="http://www.w3.org/2000/svg">
<path d="M0.777771 7.77783C0.777771 8.69709 0.958831 9.60734 1.31061 10.4566C1.6624 11.3059 2.17801 12.0776 2.82802 12.7276C3.47803 13.3776 4.24971 13.8932 5.09899 14.245C5.94827 14.5968 6.85852 14.7778 7.77777 14.7778C8.69702 14.7778 9.60728 14.5968 10.4566 14.245C11.3058 13.8932 12.0775 13.3776 12.7275 12.7276C13.3775 12.0776 13.8931 11.3059 14.2449 10.4566C14.5967 9.60734 14.7778 8.69709 14.7778 7.77783C14.7778 5.92132 14.0403 4.14084 12.7275 2.82808C11.4148 1.51533 9.63429 0.777832 7.77777 0.777832C5.92126 0.777832 4.14078 1.51533 2.82802 2.82808C1.51527 4.14084 0.777771 5.92132 0.777771 7.77783Z" stroke="#F3F0E7" stroke-width="1.55556" stroke-linecap="round" stroke-linejoin="round"/>
<path d="M7.77777 3.88892V7.7778L10.1111 10.1111" stroke="#F3F0E7" stroke-width="1.55556" stroke-linecap="round" stroke-linejoin="round"/>
</svg>
