<svg width="303" height="145" viewBox="0 0 303 145" fill="none" xmlns="http://www.w3.org/2000/svg">
<path d="M35.1784 49.0911C37.1089 49.6485 39.0881 50.0906 41.1081 50.4104V62.3137C41.1081 63.2492 41.866 64.0078 42.8015 64.0081H44.2136C45.1492 64.008 45.9079 63.2493 45.9079 62.3137V50.9309C46.8887 50.9891 47.8774 51.0198 48.8728 51.0198C49.7725 51.0198 50.6666 50.9951 51.5544 50.9475V62.3137C51.5544 63.2493 52.3132 64.0079 53.2487 64.0081H54.6609C55.5964 64.008 56.3552 63.2493 56.3552 62.3137V50.4553C58.2762 50.1626 60.1604 49.758 62.0017 49.2502V66.8313C62.0017 72.0991 58.5662 76.5616 53.8142 78.1077V128.385H42.8015V77.9075C38.3446 76.202 35.1784 71.8879 35.1784 66.8313V49.0911Z" fill="#B38E1D"/>
<path d="M48.5142 15.4208V22.6414M48.5142 15.4208C53.2076 15.4208 57.7475 14.7259 62.0528 13.4262M48.5142 15.4208C43.8208 15.4208 39.2809 14.7259 34.9756 13.4262M62.0528 13.4262C64.1077 12.8064 66.1024 12.0542 68.0369 11.1697C74.0164 8.43943 81.4356 9.71657 84.9376 15.5653M62.0528 13.4262L64.3093 20.2316M34.9756 13.4262C32.9237 12.8064 30.929 12.0542 28.9915 11.1697C23.012 8.43943 15.5883 9.72109 12.0908 15.5653M34.9756 13.4262L32.7191 20.2316M12.0908 15.5653C8.90471 20.8859 10.1367 28.0298 15.3942 30.9271C25.5294 36.5441 36.9266 39.4911 48.5142 39.4911C60.1018 39.4911 71.499 36.5441 81.6342 30.9271C86.8917 28.0253 88.1237 20.8859 84.9376 15.5653M12.0908 15.5653L3.38547 3.38501M12.0908 15.5653L3.38547 17.8262M84.9376 15.5653L93.6429 17.8217M84.9376 15.4208L93.6429 3.38501" stroke="#7E8071" stroke-width="6.76931" stroke-linecap="round" stroke-linejoin="round"/>
<path d="M96.8088 115.503C96.0401 115.503 95.3774 115.357 94.8208 115.065C94.2907 114.774 93.8268 114.403 93.4292 113.952C93.0316 113.501 92.687 112.998 92.3954 112.441C92.1304 111.885 91.9051 111.341 91.7195 110.811L84.1651 89.0226H83.1314V122.182C83.1314 123.031 83.0783 123.826 82.9723 124.568C82.8663 125.31 82.6277 125.973 82.2566 126.556C81.912 127.113 81.3819 127.563 80.6662 127.908C79.9771 128.226 79.0228 128.385 77.8035 128.385C76.4252 128.385 75.3384 128.226 74.5432 127.908C73.748 127.563 73.1516 127.113 72.754 126.556C72.3564 125.973 72.1046 125.31 71.9985 124.568C71.8925 123.826 71.8395 123.031 71.8395 122.182V81.7862C71.8395 80.6464 71.866 79.5332 71.919 78.4464C71.9985 77.3596 72.2238 76.3921 72.5949 75.5439C72.966 74.6957 73.5492 74.0198 74.3444 73.5161C75.1661 72.986 76.3191 72.7209 77.8035 72.7209H83.2109C84.1121 72.7209 84.8675 72.7607 85.4772 72.8402C86.1134 72.8932 86.6965 73.1185 87.2266 73.5161C87.7568 73.8872 88.2737 74.4969 88.7773 75.3451C89.3074 76.1933 89.8773 77.3994 90.487 78.9633C91.1231 80.5007 91.8521 82.4754 92.6738 84.8875C93.4955 87.2731 94.5027 90.2154 95.6955 93.7142L96.7293 96.8951H97.6835L98.9559 92.919C100.043 89.5792 100.97 86.7562 101.739 84.4502C102.508 82.1441 103.184 80.2488 103.767 78.7645C104.35 77.2536 104.867 76.1005 105.317 75.3053C105.795 74.4836 106.285 73.8872 106.789 73.5161C107.319 73.1185 107.889 72.8932 108.498 72.8402C109.108 72.7607 109.85 72.7209 110.725 72.7209H116.53C118.014 72.7209 119.154 72.986 119.949 73.5161C120.771 74.0198 121.367 74.6957 121.738 75.5439C122.109 76.3921 122.322 77.3596 122.375 78.4464C122.454 79.5332 122.494 80.6464 122.494 81.7862V122.182C122.494 123.031 122.441 123.826 122.335 124.568C122.229 125.31 121.977 125.973 121.579 126.556C121.182 127.113 120.585 127.563 119.79 127.908C118.995 128.226 117.908 128.385 116.53 128.385C115.31 128.385 114.343 128.226 113.627 127.908C112.938 127.563 112.408 127.113 112.037 126.556C111.692 125.973 111.467 125.31 111.361 124.568C111.255 123.826 111.202 123.031 111.202 122.182V89.0226H110.089L102.614 110.811C102.402 111.341 102.163 111.885 101.898 112.441C101.633 112.998 101.302 113.501 100.904 113.952C100.506 114.403 100.043 114.774 99.5125 115.065C98.9824 115.357 98.3462 115.503 97.604 115.503H96.8088ZM132.116 103.575C132.116 101.136 132.447 99.0686 133.11 97.3722C133.772 95.6757 134.621 94.2576 135.654 93.1178C136.715 91.9781 137.881 91.0901 139.153 90.4539C140.452 89.8178 141.724 89.3406 142.97 89.0226C144.216 88.7045 145.369 88.5057 146.429 88.4262C147.516 88.3466 148.364 88.3069 148.974 88.3069C149.584 88.3069 150.419 88.3466 151.479 88.4262C152.539 88.5057 153.666 88.7045 154.858 89.0226C156.078 89.3406 157.297 89.8178 158.516 90.4539C159.762 91.0901 160.875 91.9781 161.856 93.1178C162.863 94.2576 163.685 95.6757 164.321 97.3722C164.958 99.0686 165.276 101.136 165.276 103.575V113.435C165.276 115.874 164.958 117.941 164.321 119.638C163.685 121.334 162.863 122.752 161.856 123.892C160.875 125.032 159.762 125.92 158.516 126.556C157.297 127.192 156.078 127.669 154.858 127.987C153.666 128.305 152.539 128.504 151.479 128.584C150.419 128.663 149.584 128.703 148.974 128.703C148.364 128.703 147.516 128.663 146.429 128.584C145.369 128.504 144.216 128.305 142.97 127.987C141.724 127.669 140.452 127.192 139.153 126.556C137.881 125.92 136.715 125.032 135.654 123.892C134.621 122.752 133.772 121.334 133.11 119.638C132.447 117.941 132.116 115.874 132.116 113.435V103.575ZM144.362 116.218C144.388 116.987 144.574 117.663 144.918 118.246C145.21 118.776 145.661 119.253 146.27 119.678C146.906 120.075 147.808 120.274 148.974 120.274C150.087 120.274 150.935 120.075 151.519 119.678C152.128 119.253 152.579 118.776 152.87 118.246C153.189 117.663 153.374 116.987 153.427 116.218V101.825C153.374 101.03 153.189 100.301 152.87 99.6385C152.579 99.1084 152.128 98.618 151.519 98.1674C150.935 97.6903 150.087 97.4517 148.974 97.4517C147.808 97.4517 146.906 97.6903 146.27 98.1674C145.661 98.618 145.21 99.1084 144.918 99.6385C144.574 100.301 144.388 101.03 144.362 101.825V116.218ZM175.375 97.5312C175.375 96.3914 175.428 95.2914 175.534 94.2311C175.666 93.1444 175.945 92.1901 176.369 91.3684C176.793 90.5202 177.402 89.8575 178.198 89.3804C179.019 88.8768 180.119 88.625 181.498 88.625C182.823 88.625 183.883 88.8768 184.679 89.3804C185.474 89.8575 186.07 90.5202 186.468 91.3684C186.892 92.1901 187.157 93.1444 187.263 94.2311C187.395 95.2914 187.462 96.3914 187.462 97.5312V127.192C187.462 129.657 187.369 131.937 187.183 134.031C186.998 136.125 186.507 137.927 185.712 139.438C184.917 140.949 183.711 142.129 182.094 142.977C180.477 143.852 178.237 144.289 175.375 144.289C174.208 144.289 173.095 144.17 172.035 143.931C170.975 143.693 170.047 143.322 169.252 142.818C168.456 142.314 167.82 141.678 167.343 140.909C166.866 140.141 166.627 139.226 166.627 138.166C166.627 137.185 166.733 136.377 166.946 135.741C167.131 135.104 167.449 134.588 167.9 134.19C168.324 133.819 168.867 133.554 169.53 133.395C170.219 133.236 171.054 133.156 172.035 133.156C172.857 133.156 173.493 132.984 173.943 132.639C174.394 132.321 174.725 131.884 174.937 131.327C175.149 130.771 175.269 130.134 175.295 129.419C175.348 128.703 175.375 127.961 175.375 127.192V97.5312ZM187.462 78.685C187.462 80.673 186.932 82.1706 185.871 83.1778C184.838 84.1586 183.38 84.649 181.498 84.649C179.589 84.649 178.092 84.1586 177.005 83.1778C175.918 82.1706 175.375 80.673 175.375 78.685C175.375 76.6174 175.918 75.0933 177.005 74.1125C178.092 73.1318 179.589 72.6414 181.498 72.6414C183.539 72.6414 185.036 73.1318 185.991 74.1125C186.971 75.0933 187.462 76.6174 187.462 78.685ZM200.264 97.5312C200.264 96.3914 200.317 95.2914 200.423 94.2311C200.556 93.1444 200.834 92.1901 201.258 91.3684C201.683 90.5202 202.292 89.8575 203.087 89.3804C203.909 88.8768 205.009 88.625 206.387 88.625C207.713 88.625 208.773 88.8768 209.568 89.3804C210.363 89.8575 210.96 90.5202 211.357 91.3684C211.782 92.1901 212.047 93.1444 212.153 94.2311C212.285 95.2914 212.351 96.3914 212.351 97.5312V127.192C212.351 129.657 212.259 131.937 212.073 134.031C211.888 136.125 211.397 137.927 210.602 139.438C209.807 140.949 208.601 142.129 206.984 142.977C205.367 143.852 203.127 144.289 200.264 144.289C199.098 144.289 197.985 144.17 196.925 143.931C195.864 143.693 194.937 143.322 194.141 142.818C193.346 142.314 192.71 141.678 192.233 140.909C191.756 140.141 191.517 139.226 191.517 138.166C191.517 137.185 191.623 136.377 191.835 135.741C192.021 135.104 192.339 134.588 192.79 134.19C193.214 133.819 193.757 133.554 194.42 133.395C195.109 133.236 195.944 133.156 196.925 133.156C197.746 133.156 198.382 132.984 198.833 132.639C199.284 132.321 199.615 131.884 199.827 131.327C200.039 130.771 200.158 130.134 200.185 129.419C200.238 128.703 200.264 127.961 200.264 127.192V97.5312ZM212.351 78.685C212.351 80.673 211.821 82.1706 210.761 83.1778C209.727 84.1586 208.269 84.649 206.387 84.649C204.479 84.649 202.981 84.1586 201.895 83.1778C200.808 82.1706 200.264 80.673 200.264 78.685C200.264 76.6174 200.808 75.0933 201.895 74.1125C202.981 73.1318 204.479 72.6414 206.387 72.6414C208.429 72.6414 209.926 73.1318 210.88 74.1125C211.861 75.0933 212.351 76.6174 212.351 78.685ZM255.372 105.722C255.372 106.146 255.345 106.65 255.292 107.233C255.239 107.789 255.027 108.333 254.656 108.863C254.312 109.366 253.755 109.804 252.986 110.175C252.218 110.546 251.131 110.732 249.726 110.732H233.901V114.549C233.901 115.185 233.981 115.847 234.14 116.537C234.299 117.226 234.564 117.862 234.935 118.445C235.333 119.028 235.85 119.505 236.486 119.876C237.122 120.247 237.904 120.433 238.832 120.433C239.892 120.433 240.7 120.314 241.257 120.075C241.84 119.81 242.291 119.492 242.609 119.121C242.953 118.75 243.258 118.352 243.523 117.928C243.788 117.504 244.133 117.106 244.557 116.735C245.008 116.364 245.617 116.059 246.386 115.821C247.181 115.556 248.268 115.423 249.646 115.423C250.309 115.423 250.945 115.476 251.555 115.582C252.191 115.688 252.748 115.887 253.225 116.179C253.702 116.47 254.086 116.881 254.378 117.411C254.669 117.915 254.815 118.578 254.815 119.399C254.815 121.122 254.272 122.567 253.185 123.733C252.098 124.873 250.733 125.787 249.09 126.477C247.446 127.166 245.657 127.656 243.722 127.948C241.814 128.239 240.024 128.385 238.355 128.385C236.155 128.359 234.06 128.08 232.072 127.55C230.084 127.02 228.322 126.172 226.784 125.005C225.274 123.839 224.067 122.315 223.166 120.433C222.265 118.551 221.814 116.245 221.814 113.515V104.211C221.814 101.693 222.106 99.559 222.689 97.8095C223.299 96.0601 224.081 94.6022 225.035 93.4359C225.989 92.2696 227.063 91.3684 228.256 90.7322C229.448 90.0696 230.654 89.5792 231.874 89.2611C233.093 88.943 234.246 88.7442 235.333 88.6647C236.446 88.5852 237.4 88.5454 238.196 88.5454C240.873 88.5454 243.152 88.784 245.034 89.2611C246.943 89.7382 248.533 90.3612 249.805 91.1298C251.078 91.8985 252.085 92.7865 252.827 93.7938C253.569 94.801 254.126 95.848 254.497 96.9348C254.868 97.9951 255.107 99.0819 255.213 100.195C255.319 101.282 255.372 102.302 255.372 103.257V105.722ZM233.901 104.768H243.841C243.841 103.522 243.802 102.422 243.722 101.467C243.669 100.487 243.47 99.665 243.126 99.0023C242.808 98.3397 242.291 97.836 241.575 97.4915C240.886 97.1469 239.892 96.9746 238.593 96.9746C237.506 96.9746 236.645 97.1469 236.009 97.4915C235.399 97.836 234.935 98.2734 234.617 98.8035C234.299 99.3072 234.1 99.8506 234.021 100.434C233.941 101.017 233.901 101.534 233.901 101.984V104.768ZM297.12 119.32C297.12 120.46 297.054 121.573 296.921 122.66C296.789 123.746 296.497 124.714 296.046 125.562C295.622 126.41 294.999 127.099 294.178 127.63C293.382 128.133 292.296 128.385 290.917 128.385C289.566 128.385 288.492 128.133 287.697 127.63C286.902 127.099 286.292 126.41 285.868 125.562C285.444 124.714 285.165 123.746 285.033 122.66C284.927 121.573 284.874 120.46 284.874 119.32V103.813C284.874 103.071 284.834 102.342 284.755 101.626C284.702 100.911 284.556 100.288 284.317 99.7578C284.079 99.2011 283.721 98.7638 283.244 98.4457C282.793 98.1011 282.17 97.9288 281.375 97.9288C280.288 97.9288 279.413 98.2867 278.751 99.0023C278.088 99.718 277.558 100.699 277.16 101.945C276.789 103.19 276.537 104.662 276.405 106.358C276.272 108.028 276.206 109.83 276.206 111.765V119.32C276.206 120.46 276.14 121.573 276.007 122.66C275.875 123.746 275.583 124.714 275.133 125.562C274.709 126.41 274.086 127.099 273.264 127.63C272.469 128.133 271.382 128.385 270.004 128.385C268.652 128.385 267.578 128.133 266.783 127.63C265.988 127.099 265.378 126.41 264.954 125.562C264.53 124.714 264.252 123.746 264.119 122.66C264.013 121.573 263.96 120.46 263.96 119.32V97.6107C263.96 96.4709 264 95.3709 264.079 94.3107C264.159 93.2239 264.397 92.2696 264.795 91.4479C265.193 90.5997 265.789 89.9238 266.584 89.4202C267.406 88.89 268.546 88.625 270.004 88.625C271.461 88.625 272.601 88.8768 273.423 89.3804C274.245 89.8575 274.854 90.4407 275.252 91.1298C275.676 91.819 275.941 92.548 276.047 93.3166C276.153 94.0853 276.206 94.748 276.206 95.3047C276.418 94.536 276.75 93.754 277.2 92.9588C277.651 92.1636 278.221 91.4479 278.91 90.8118C279.625 90.1756 280.474 89.6587 281.454 89.2611C282.435 88.837 283.575 88.625 284.874 88.625C286.332 88.625 287.79 88.8635 289.247 89.3406C290.705 89.8178 292.017 90.613 293.184 91.7262C294.35 92.8395 295.291 94.2974 296.007 96.0999C296.749 97.9023 297.12 100.129 297.12 102.78V119.32Z" fill="#B38E1D"/>
</svg>
